G04 EAGLE Gerber RS-274X export*
G75*
%MOMM*%
%FSLAX34Y34*%
%LPD*%
%INSilkscreen Top*%
%IPPOS*%
%AMOC8*
5,1,8,0,0,1.08239X$1,22.5*%
G01*
G04 Define Apertures*
%ADD10C,0.127000*%
%ADD11C,0.609600*%
%ADD12C,0.152400*%
G36*
X138097Y154738D02*
X137725Y154746D01*
X137364Y154772D01*
X137015Y154815D01*
X136679Y154876D01*
X136354Y154953D01*
X136041Y155048D01*
X135741Y155160D01*
X135452Y155290D01*
X135178Y155435D01*
X134919Y155597D01*
X134676Y155774D01*
X134449Y155966D01*
X134238Y156174D01*
X134043Y156398D01*
X133864Y156637D01*
X133701Y156892D01*
X133555Y157161D01*
X133429Y157443D01*
X133322Y157737D01*
X133234Y158044D01*
X133166Y158363D01*
X133118Y158696D01*
X133088Y159040D01*
X133079Y159397D01*
X133079Y167254D01*
X134752Y167254D01*
X134752Y159537D01*
X134765Y159128D01*
X134805Y158743D01*
X134872Y158384D01*
X134966Y158051D01*
X135087Y157743D01*
X135234Y157460D01*
X135409Y157203D01*
X135610Y156971D01*
X135836Y156766D01*
X136087Y156588D01*
X136361Y156437D01*
X136659Y156314D01*
X136981Y156218D01*
X137326Y156150D01*
X137695Y156109D01*
X138089Y156095D01*
X138493Y156109D01*
X138874Y156152D01*
X139233Y156223D01*
X139568Y156322D01*
X139880Y156449D01*
X140169Y156605D01*
X140434Y156789D01*
X140677Y157002D01*
X140893Y157242D01*
X141081Y157507D01*
X141240Y157799D01*
X141370Y158117D01*
X141471Y158462D01*
X141543Y158832D01*
X141586Y159229D01*
X141601Y159651D01*
X141601Y167254D01*
X143265Y167254D01*
X143265Y159555D01*
X143255Y159187D01*
X143225Y158832D01*
X143176Y158490D01*
X143106Y158160D01*
X143017Y157844D01*
X142908Y157540D01*
X142779Y157249D01*
X142630Y156971D01*
X142463Y156708D01*
X142280Y156460D01*
X142080Y156229D01*
X141864Y156013D01*
X141631Y155814D01*
X141382Y155630D01*
X141116Y155463D01*
X140834Y155311D01*
X140538Y155177D01*
X140228Y155060D01*
X139906Y154962D01*
X139570Y154881D01*
X139221Y154818D01*
X138860Y154774D01*
X138485Y154747D01*
X138097Y154738D01*
G37*
G36*
X153733Y154913D02*
X145999Y154913D01*
X145999Y156253D01*
X149143Y156253D01*
X149143Y165747D01*
X146358Y163759D01*
X146358Y165248D01*
X149274Y167254D01*
X150728Y167254D01*
X150728Y156253D01*
X153733Y156253D01*
X153733Y154913D01*
G37*
G36*
X78469Y163867D02*
X78144Y165356D01*
X78397Y165419D01*
X78633Y165496D01*
X78854Y165588D01*
X79058Y165695D01*
X79245Y165817D01*
X79417Y165953D01*
X79573Y166105D01*
X79712Y166272D01*
X79837Y166454D01*
X79947Y166654D01*
X80044Y166871D01*
X80126Y167105D01*
X80195Y167356D01*
X80249Y167624D01*
X80285Y167876D01*
X80290Y167909D01*
X80317Y168212D01*
X75972Y168212D01*
X75785Y167496D01*
X75607Y166901D01*
X75526Y166672D01*
X75439Y166426D01*
X75280Y166070D01*
X75121Y165789D01*
X74951Y165536D01*
X74769Y165311D01*
X74575Y165115D01*
X74373Y164946D01*
X74163Y164802D01*
X73946Y164684D01*
X73721Y164590D01*
X73482Y164519D01*
X73220Y164468D01*
X72935Y164438D01*
X72627Y164428D01*
X72296Y164443D01*
X71985Y164490D01*
X71692Y164567D01*
X71417Y164674D01*
X71161Y164813D01*
X70923Y164982D01*
X70703Y165182D01*
X70503Y165413D01*
X70322Y165673D01*
X70162Y165958D01*
X70025Y166269D01*
X69908Y166606D01*
X69813Y166968D01*
X69740Y167357D01*
X69688Y167771D01*
X69657Y168212D01*
X68510Y168212D01*
X68510Y169298D01*
X69657Y169298D01*
X69686Y169696D01*
X69733Y170070D01*
X69798Y170421D01*
X69882Y170749D01*
X69983Y171054D01*
X70103Y171336D01*
X70241Y171594D01*
X70398Y171829D01*
X70574Y172044D01*
X70774Y172243D01*
X70998Y172425D01*
X71244Y172591D01*
X71513Y172740D01*
X71806Y172873D01*
X72121Y172990D01*
X72460Y173090D01*
X72749Y171566D01*
X72360Y171456D01*
X72017Y171301D01*
X71719Y171101D01*
X71466Y170857D01*
X71357Y170715D01*
X71259Y170559D01*
X71172Y170387D01*
X71097Y170200D01*
X71033Y169997D01*
X70981Y169779D01*
X70940Y169546D01*
X70910Y169298D01*
X74807Y169298D01*
X74988Y170025D01*
X75160Y170639D01*
X75325Y171139D01*
X75482Y171527D01*
X75640Y171840D01*
X75808Y172119D01*
X75986Y172363D01*
X76174Y172573D01*
X76375Y172755D01*
X76594Y172913D01*
X76831Y173048D01*
X77085Y173160D01*
X77359Y173248D01*
X77656Y173311D01*
X77976Y173349D01*
X78320Y173362D01*
X78672Y173345D01*
X79007Y173295D01*
X79323Y173213D01*
X79622Y173097D01*
X79904Y172948D01*
X80167Y172766D01*
X80413Y172550D01*
X80641Y172302D01*
X80847Y172023D01*
X81030Y171717D01*
X81188Y171383D01*
X81322Y171021D01*
X81431Y170632D01*
X81516Y170215D01*
X81577Y169770D01*
X81613Y169298D01*
X83032Y169298D01*
X83032Y168212D01*
X81613Y168212D01*
X81582Y167757D01*
X81529Y167328D01*
X81454Y166922D01*
X81357Y166541D01*
X81238Y166184D01*
X81097Y165852D01*
X80933Y165544D01*
X80748Y165260D01*
X80540Y165001D01*
X80311Y164766D01*
X80059Y164555D01*
X79785Y164369D01*
X79489Y164207D01*
X79171Y164069D01*
X78831Y163956D01*
X78469Y163867D01*
G37*
%LPC*%
G36*
X80325Y169298D02*
X80299Y169597D01*
X80286Y169687D01*
X80259Y169879D01*
X80206Y170143D01*
X80139Y170389D01*
X80059Y170617D01*
X79966Y170827D01*
X79859Y171020D01*
X79739Y171194D01*
X79606Y171349D01*
X79460Y171483D01*
X79303Y171597D01*
X79134Y171690D01*
X78953Y171762D01*
X78760Y171814D01*
X78554Y171845D01*
X78337Y171855D01*
X78065Y171841D01*
X77818Y171798D01*
X77597Y171727D01*
X77400Y171627D01*
X77224Y171501D01*
X77064Y171349D01*
X76920Y171173D01*
X76791Y170971D01*
X76666Y170705D01*
X76530Y170338D01*
X76383Y169869D01*
X76226Y169298D01*
X80325Y169298D01*
G37*
G36*
X72609Y165934D02*
X72858Y165948D01*
X73086Y165989D01*
X73296Y166058D01*
X73485Y166153D01*
X73490Y166157D01*
X73657Y166276D01*
X73816Y166426D01*
X73960Y166603D01*
X74089Y166806D01*
X74212Y167056D01*
X74335Y167374D01*
X74457Y167759D01*
X74580Y168212D01*
X70892Y168212D01*
X70913Y167936D01*
X70946Y167678D01*
X70990Y167438D01*
X71046Y167215D01*
X71113Y167011D01*
X71191Y166824D01*
X71281Y166655D01*
X71383Y166504D01*
X71496Y166370D01*
X71620Y166255D01*
X71756Y166157D01*
X71904Y166077D01*
X72063Y166014D01*
X72234Y165970D01*
X72416Y165943D01*
X72609Y165934D01*
G37*
%LPD*%
G36*
X77304Y152121D02*
X69447Y152121D01*
X69447Y153794D01*
X77164Y153794D01*
X77573Y153807D01*
X77958Y153848D01*
X78317Y153915D01*
X78650Y154009D01*
X78958Y154129D01*
X79241Y154277D01*
X79498Y154451D01*
X79730Y154652D01*
X79935Y154879D01*
X80113Y155129D01*
X80263Y155403D01*
X80387Y155701D01*
X80482Y156023D01*
X80551Y156368D01*
X80592Y156738D01*
X80606Y157131D01*
X80591Y157535D01*
X80549Y157917D01*
X80478Y158275D01*
X80379Y158610D01*
X80252Y158922D01*
X80096Y159211D01*
X79912Y159477D01*
X79699Y159719D01*
X79459Y159936D01*
X79194Y160123D01*
X78902Y160282D01*
X78583Y160412D01*
X78239Y160513D01*
X77869Y160585D01*
X77472Y160629D01*
X77050Y160643D01*
X69447Y160643D01*
X69447Y162307D01*
X77146Y162307D01*
X77514Y162297D01*
X77869Y162268D01*
X78211Y162218D01*
X78541Y162149D01*
X78857Y162059D01*
X79161Y161950D01*
X79452Y161821D01*
X79730Y161672D01*
X79993Y161505D01*
X80241Y161322D01*
X80472Y161122D01*
X80688Y160906D01*
X80887Y160673D01*
X81071Y160424D01*
X81238Y160159D01*
X81390Y159877D01*
X81524Y159580D01*
X81641Y159271D01*
X81739Y158948D01*
X81820Y158612D01*
X81882Y158264D01*
X81927Y157902D01*
X81954Y157527D01*
X81963Y157140D01*
X81955Y156767D01*
X81929Y156406D01*
X81886Y156057D01*
X81825Y155721D01*
X81748Y155396D01*
X81653Y155084D01*
X81541Y154783D01*
X81411Y154495D01*
X81266Y154220D01*
X81104Y153961D01*
X80927Y153719D01*
X80735Y153492D01*
X80527Y153281D01*
X80303Y153086D01*
X80064Y152906D01*
X79809Y152743D01*
X79540Y152597D01*
X79258Y152471D01*
X78964Y152364D01*
X78657Y152277D01*
X78337Y152209D01*
X78005Y152160D01*
X77661Y152131D01*
X77304Y152121D01*
G37*
G36*
X81788Y175010D02*
X80448Y175010D01*
X80448Y178154D01*
X70954Y178154D01*
X72942Y175369D01*
X71453Y175369D01*
X69447Y178285D01*
X69447Y179739D01*
X80448Y179739D01*
X80448Y182744D01*
X81788Y182744D01*
X81788Y175010D01*
G37*
G36*
X206993Y17448D02*
X206668Y18937D01*
X206921Y18999D01*
X207157Y19076D01*
X207378Y19168D01*
X207582Y19275D01*
X207769Y19397D01*
X207941Y19534D01*
X208097Y19686D01*
X208236Y19852D01*
X208361Y20035D01*
X208471Y20235D01*
X208568Y20452D01*
X208650Y20686D01*
X208719Y20937D01*
X208773Y21205D01*
X208809Y21457D01*
X208814Y21490D01*
X208841Y21792D01*
X204496Y21792D01*
X204309Y21077D01*
X204131Y20482D01*
X204050Y20253D01*
X203963Y20007D01*
X203804Y19651D01*
X203645Y19370D01*
X203475Y19117D01*
X203293Y18892D01*
X203099Y18696D01*
X202897Y18527D01*
X202687Y18383D01*
X202470Y18264D01*
X202245Y18171D01*
X202006Y18100D01*
X201744Y18049D01*
X201459Y18019D01*
X201151Y18009D01*
X200820Y18024D01*
X200509Y18070D01*
X200216Y18147D01*
X199941Y18255D01*
X199685Y18394D01*
X199447Y18563D01*
X199227Y18763D01*
X199027Y18994D01*
X198846Y19253D01*
X198686Y19538D01*
X198549Y19849D01*
X198432Y20186D01*
X198337Y20549D01*
X198264Y20938D01*
X198212Y21352D01*
X198181Y21792D01*
X197034Y21792D01*
X197034Y22878D01*
X198181Y22878D01*
X198210Y23276D01*
X198257Y23651D01*
X198322Y24002D01*
X198406Y24330D01*
X198507Y24635D01*
X198627Y24916D01*
X198765Y25175D01*
X198922Y25410D01*
X199098Y25625D01*
X199298Y25824D01*
X199522Y26006D01*
X199768Y26172D01*
X200037Y26321D01*
X200330Y26454D01*
X200645Y26571D01*
X200984Y26671D01*
X201273Y25147D01*
X200884Y25037D01*
X200541Y24882D01*
X200243Y24682D01*
X199990Y24438D01*
X199881Y24296D01*
X199783Y24140D01*
X199696Y23968D01*
X199621Y23781D01*
X199557Y23578D01*
X199505Y23360D01*
X199464Y23127D01*
X199434Y22878D01*
X203331Y22878D01*
X203512Y23606D01*
X203684Y24220D01*
X203849Y24720D01*
X204006Y25108D01*
X204164Y25421D01*
X204332Y25700D01*
X204510Y25944D01*
X204698Y26154D01*
X204899Y26335D01*
X205118Y26494D01*
X205355Y26629D01*
X205609Y26741D01*
X205883Y26829D01*
X206180Y26892D01*
X206500Y26930D01*
X206844Y26942D01*
X207196Y26926D01*
X207531Y26876D01*
X207847Y26793D01*
X208146Y26678D01*
X208428Y26528D01*
X208691Y26346D01*
X208937Y26131D01*
X209165Y25883D01*
X209371Y25604D01*
X209554Y25297D01*
X209712Y24963D01*
X209846Y24602D01*
X209955Y24212D01*
X210040Y23795D01*
X210101Y23351D01*
X210137Y22878D01*
X211556Y22878D01*
X211556Y21792D01*
X210137Y21792D01*
X210106Y21338D01*
X210053Y20908D01*
X209978Y20503D01*
X209881Y20122D01*
X209762Y19765D01*
X209621Y19433D01*
X209457Y19124D01*
X209272Y18841D01*
X209064Y18581D01*
X208835Y18346D01*
X208583Y18136D01*
X208309Y17950D01*
X208013Y17788D01*
X207695Y17650D01*
X207355Y17537D01*
X206993Y17448D01*
G37*
%LPC*%
G36*
X208849Y22878D02*
X208823Y23178D01*
X208810Y23268D01*
X208783Y23460D01*
X208730Y23724D01*
X208663Y23970D01*
X208583Y24198D01*
X208490Y24408D01*
X208383Y24600D01*
X208263Y24775D01*
X208130Y24930D01*
X207984Y25064D01*
X207827Y25178D01*
X207658Y25271D01*
X207477Y25343D01*
X207284Y25395D01*
X207078Y25426D01*
X206861Y25436D01*
X206589Y25422D01*
X206342Y25379D01*
X206121Y25308D01*
X205924Y25208D01*
X205748Y25082D01*
X205588Y24930D01*
X205444Y24753D01*
X205315Y24551D01*
X205190Y24286D01*
X205054Y23919D01*
X204907Y23449D01*
X204750Y22878D01*
X208849Y22878D01*
G37*
G36*
X201133Y19515D02*
X201382Y19529D01*
X201610Y19570D01*
X201820Y19638D01*
X202009Y19734D01*
X202014Y19738D01*
X202181Y19857D01*
X202340Y20007D01*
X202484Y20183D01*
X202613Y20387D01*
X202736Y20637D01*
X202859Y20955D01*
X202981Y21340D01*
X203104Y21792D01*
X199416Y21792D01*
X199437Y21517D01*
X199470Y21259D01*
X199514Y21019D01*
X199570Y20796D01*
X199637Y20592D01*
X199715Y20405D01*
X199805Y20236D01*
X199907Y20085D01*
X200020Y19951D01*
X200144Y19835D01*
X200280Y19738D01*
X200428Y19658D01*
X200587Y19595D01*
X200758Y19551D01*
X200940Y19524D01*
X201133Y19515D01*
G37*
%LPD*%
G36*
X205828Y5702D02*
X197971Y5702D01*
X197971Y7375D01*
X205688Y7375D01*
X206097Y7388D01*
X206482Y7428D01*
X206841Y7495D01*
X207174Y7589D01*
X207482Y7710D01*
X207765Y7858D01*
X208022Y8032D01*
X208254Y8233D01*
X208459Y8460D01*
X208637Y8710D01*
X208787Y8984D01*
X208911Y9282D01*
X209006Y9604D01*
X209075Y9949D01*
X209116Y10319D01*
X209130Y10712D01*
X209115Y11116D01*
X209073Y11498D01*
X209002Y11856D01*
X208903Y12191D01*
X208776Y12503D01*
X208620Y12792D01*
X208436Y13057D01*
X208223Y13300D01*
X207983Y13516D01*
X207718Y13704D01*
X207426Y13863D01*
X207107Y13993D01*
X206763Y14094D01*
X206393Y14166D01*
X205996Y14209D01*
X205574Y14224D01*
X197971Y14224D01*
X197971Y15888D01*
X205670Y15888D01*
X206038Y15878D01*
X206393Y15848D01*
X206735Y15799D01*
X207065Y15729D01*
X207381Y15640D01*
X207685Y15531D01*
X207976Y15402D01*
X208254Y15253D01*
X208517Y15086D01*
X208765Y14903D01*
X208996Y14703D01*
X209212Y14487D01*
X209411Y14254D01*
X209595Y14005D01*
X209762Y13739D01*
X209914Y13458D01*
X210048Y13161D01*
X210165Y12851D01*
X210263Y12529D01*
X210344Y12193D01*
X210406Y11844D01*
X210451Y11483D01*
X210478Y11108D01*
X210487Y10720D01*
X210479Y10348D01*
X210453Y9987D01*
X210410Y9638D01*
X210349Y9302D01*
X210272Y8977D01*
X210177Y8664D01*
X210065Y8364D01*
X209935Y8075D01*
X209790Y7801D01*
X209628Y7542D01*
X209451Y7299D01*
X209259Y7073D01*
X209051Y6862D01*
X208827Y6666D01*
X208588Y6487D01*
X208333Y6324D01*
X208064Y6178D01*
X207782Y6052D01*
X207488Y5945D01*
X207181Y5857D01*
X206861Y5789D01*
X206529Y5741D01*
X206185Y5712D01*
X205828Y5702D01*
G37*
G36*
X210312Y28126D02*
X209200Y28126D01*
X208702Y28362D01*
X208235Y28622D01*
X207798Y28907D01*
X207391Y29217D01*
X207008Y29543D01*
X206644Y29877D01*
X206299Y30219D01*
X205972Y30570D01*
X205360Y31276D01*
X204794Y31976D01*
X204251Y32638D01*
X203708Y33233D01*
X203433Y33499D01*
X203152Y33740D01*
X202864Y33953D01*
X202569Y34139D01*
X202262Y34290D01*
X201934Y34399D01*
X201587Y34463D01*
X201221Y34485D01*
X200974Y34476D01*
X200741Y34448D01*
X200523Y34401D01*
X200319Y34336D01*
X200129Y34252D01*
X199953Y34150D01*
X199791Y34029D01*
X199644Y33890D01*
X199513Y33733D01*
X199399Y33563D01*
X199303Y33378D01*
X199224Y33178D01*
X199162Y32964D01*
X199119Y32735D01*
X199092Y32492D01*
X199084Y32234D01*
X199092Y31988D01*
X199118Y31753D01*
X199161Y31529D01*
X199220Y31316D01*
X199297Y31114D01*
X199391Y30923D01*
X199503Y30743D01*
X199631Y30574D01*
X199775Y30420D01*
X199932Y30282D01*
X200104Y30161D01*
X200289Y30057D01*
X200488Y29969D01*
X200701Y29899D01*
X200928Y29845D01*
X201168Y29808D01*
X201019Y28196D01*
X200659Y28254D01*
X200317Y28341D01*
X199994Y28455D01*
X199690Y28598D01*
X199405Y28770D01*
X199139Y28969D01*
X198892Y29197D01*
X198663Y29453D01*
X198458Y29733D01*
X198280Y30033D01*
X198129Y30351D01*
X198006Y30689D01*
X197910Y31047D01*
X197842Y31423D01*
X197801Y31819D01*
X197787Y32234D01*
X197801Y32687D01*
X197842Y33113D01*
X197911Y33512D01*
X198007Y33884D01*
X198131Y34229D01*
X198282Y34547D01*
X198461Y34838D01*
X198668Y35103D01*
X198899Y35338D01*
X199154Y35541D01*
X199432Y35714D01*
X199733Y35855D01*
X200057Y35964D01*
X200404Y36043D01*
X200775Y36090D01*
X201168Y36105D01*
X201527Y36085D01*
X201884Y36023D01*
X202240Y35921D01*
X202596Y35777D01*
X202950Y35593D01*
X203305Y35369D01*
X203660Y35104D01*
X204015Y34800D01*
X204418Y34402D01*
X204919Y33857D01*
X205517Y33163D01*
X206213Y32322D01*
X206615Y31844D01*
X206996Y31417D01*
X207357Y31042D01*
X207698Y30719D01*
X208025Y30442D01*
X208347Y30207D01*
X208662Y30013D01*
X208972Y29861D01*
X208972Y36298D01*
X210312Y36298D01*
X210312Y28126D01*
G37*
D10*
X127700Y142400D02*
X127700Y55400D01*
X151700Y55400D01*
X151700Y142400D01*
X127700Y142400D01*
D11*
X111900Y144900D02*
X111902Y144956D01*
X111908Y145013D01*
X111918Y145068D01*
X111932Y145123D01*
X111949Y145177D01*
X111971Y145229D01*
X111996Y145279D01*
X112024Y145328D01*
X112056Y145375D01*
X112091Y145419D01*
X112129Y145461D01*
X112170Y145500D01*
X112214Y145535D01*
X112260Y145568D01*
X112308Y145597D01*
X112358Y145623D01*
X112410Y145646D01*
X112464Y145664D01*
X112518Y145679D01*
X112573Y145690D01*
X112629Y145697D01*
X112686Y145700D01*
X112742Y145699D01*
X112799Y145694D01*
X112854Y145685D01*
X112909Y145672D01*
X112963Y145655D01*
X113016Y145635D01*
X113067Y145611D01*
X113116Y145583D01*
X113163Y145552D01*
X113208Y145518D01*
X113251Y145480D01*
X113290Y145440D01*
X113327Y145397D01*
X113360Y145352D01*
X113390Y145304D01*
X113417Y145254D01*
X113440Y145203D01*
X113460Y145150D01*
X113476Y145096D01*
X113488Y145040D01*
X113496Y144985D01*
X113500Y144928D01*
X113500Y144872D01*
X113496Y144815D01*
X113488Y144760D01*
X113476Y144704D01*
X113460Y144650D01*
X113440Y144597D01*
X113417Y144546D01*
X113390Y144496D01*
X113360Y144448D01*
X113327Y144403D01*
X113290Y144360D01*
X113251Y144320D01*
X113208Y144282D01*
X113163Y144248D01*
X113116Y144217D01*
X113067Y144189D01*
X113016Y144165D01*
X112963Y144145D01*
X112909Y144128D01*
X112854Y144115D01*
X112799Y144106D01*
X112742Y144101D01*
X112686Y144100D01*
X112629Y144103D01*
X112573Y144110D01*
X112518Y144121D01*
X112464Y144136D01*
X112410Y144154D01*
X112358Y144177D01*
X112308Y144203D01*
X112260Y144232D01*
X112214Y144265D01*
X112170Y144300D01*
X112129Y144339D01*
X112091Y144381D01*
X112056Y144425D01*
X112024Y144472D01*
X111996Y144521D01*
X111971Y144571D01*
X111949Y144623D01*
X111932Y144677D01*
X111918Y144732D01*
X111908Y144787D01*
X111902Y144844D01*
X111900Y144900D01*
D12*
X57150Y55880D02*
X63500Y49530D01*
X63500Y36830D01*
X57150Y30480D01*
X44450Y30480D01*
X38100Y36830D01*
X38100Y49530D01*
X44450Y55880D01*
X63500Y87630D02*
X63500Y100330D01*
X63500Y87630D02*
X57150Y81280D01*
X44450Y81280D01*
X38100Y87630D01*
X57150Y81280D02*
X63500Y74930D01*
X63500Y62230D01*
X57150Y55880D01*
X44450Y55880D01*
X38100Y62230D01*
X38100Y74930D01*
X44450Y81280D01*
X63500Y125730D02*
X57150Y132080D01*
X63500Y125730D02*
X63500Y113030D01*
X57150Y106680D01*
X44450Y106680D01*
X38100Y113030D01*
X38100Y125730D01*
X44450Y132080D01*
X57150Y106680D02*
X63500Y100330D01*
X44450Y106680D02*
X38100Y100330D01*
X38100Y87630D01*
X63500Y163830D02*
X63500Y176530D01*
X63500Y163830D02*
X57150Y157480D01*
X44450Y157480D01*
X38100Y163830D01*
X57150Y157480D02*
X63500Y151130D01*
X63500Y138430D01*
X57150Y132080D01*
X44450Y132080D01*
X38100Y138430D01*
X38100Y151130D01*
X44450Y157480D01*
X44450Y182880D02*
X57150Y182880D01*
X63500Y176530D01*
X44450Y182880D02*
X38100Y176530D01*
X38100Y163830D01*
X63500Y24130D02*
X63500Y11430D01*
X57150Y5080D01*
X44450Y5080D01*
X38100Y11430D01*
X57150Y30480D02*
X63500Y24130D01*
X44450Y30480D02*
X38100Y24130D01*
X38100Y11430D01*
X215900Y138430D02*
X222250Y132080D01*
X215900Y138430D02*
X215900Y151130D01*
X222250Y157480D01*
X234950Y157480D01*
X241300Y151130D01*
X241300Y138430D01*
X234950Y132080D01*
X215900Y100330D02*
X215900Y87630D01*
X215900Y100330D02*
X222250Y106680D01*
X234950Y106680D01*
X241300Y100330D01*
X222250Y106680D02*
X215900Y113030D01*
X215900Y125730D01*
X222250Y132080D01*
X234950Y132080D01*
X241300Y125730D01*
X241300Y113030D01*
X234950Y106680D01*
X215900Y62230D02*
X222250Y55880D01*
X215900Y62230D02*
X215900Y74930D01*
X222250Y81280D01*
X234950Y81280D01*
X241300Y74930D01*
X241300Y62230D01*
X234950Y55880D01*
X222250Y81280D02*
X215900Y87630D01*
X234950Y81280D02*
X241300Y87630D01*
X241300Y100330D01*
X215900Y24130D02*
X215900Y11430D01*
X215900Y24130D02*
X222250Y30480D01*
X234950Y30480D01*
X241300Y24130D01*
X222250Y30480D02*
X215900Y36830D01*
X215900Y49530D01*
X222250Y55880D01*
X234950Y55880D01*
X241300Y49530D01*
X241300Y36830D01*
X234950Y30480D01*
X234950Y5080D02*
X222250Y5080D01*
X215900Y11430D01*
X234950Y5080D02*
X241300Y11430D01*
X241300Y24130D01*
X215900Y163830D02*
X215900Y176530D01*
X222250Y182880D01*
X234950Y182880D01*
X241300Y176530D01*
X222250Y157480D02*
X215900Y163830D01*
X234950Y157480D02*
X241300Y163830D01*
X241300Y176530D01*
M02*
