G04 EAGLE Gerber RS-274X export*
G75*
%MOMM*%
%FSLAX34Y34*%
%LPD*%
%INSoldermask Top*%
%IPPOS*%
%AMOC8*
5,1,8,0,0,1.08239X$1,22.5*%
G01*
G04 Define Apertures*
%ADD10C,0.803200*%
%ADD11C,1.727200*%
D10*
X108200Y137000D02*
X122200Y137000D01*
X122200Y124300D02*
X108200Y124300D01*
X108200Y111600D02*
X122200Y111600D01*
X122200Y98900D02*
X108200Y98900D01*
X108200Y86200D02*
X122200Y86200D01*
X122200Y73500D02*
X108200Y73500D01*
X108200Y60800D02*
X122200Y60800D01*
X157200Y60800D02*
X171200Y60800D01*
X171200Y73500D02*
X157200Y73500D01*
X157200Y86200D02*
X171200Y86200D01*
X171200Y98900D02*
X157200Y98900D01*
X157200Y111600D02*
X171200Y111600D01*
X171200Y124300D02*
X157200Y124300D01*
X157200Y137000D02*
X171200Y137000D01*
D11*
X58420Y170180D02*
X43180Y170180D01*
X43180Y144780D02*
X58420Y144780D01*
X58420Y119380D02*
X43180Y119380D01*
X43180Y93980D02*
X58420Y93980D01*
X58420Y68580D02*
X43180Y68580D01*
X43180Y43180D02*
X58420Y43180D01*
X58420Y17780D02*
X43180Y17780D01*
X220980Y17780D02*
X236220Y17780D01*
X236220Y43180D02*
X220980Y43180D01*
X220980Y68580D02*
X236220Y68580D01*
X236220Y93980D02*
X220980Y93980D01*
X220980Y119380D02*
X236220Y119380D01*
X236220Y144780D02*
X220980Y144780D01*
X220980Y170180D02*
X236220Y170180D01*
M02*
