G04 EAGLE Gerber RS-274X export*
G75*
%MOMM*%
%FSLAX34Y34*%
%LPD*%
%INTop Copper*%
%IPPOS*%
%AMOC8*
5,1,8,0,0,1.08239X$1,22.5*%
G01*
G04 Define Apertures*
%ADD10R,1.650000X0.650000*%
%ADD11C,1.524000*%
%ADD12C,0.800000*%
D10*
X128950Y280646D03*
X128950Y267946D03*
X128950Y255246D03*
X128950Y242546D03*
X128950Y229846D03*
X128950Y217146D03*
X128950Y204446D03*
X128950Y191746D03*
X128950Y179046D03*
X128950Y166346D03*
X224450Y166346D03*
X224450Y179046D03*
X224450Y191746D03*
X224450Y204446D03*
X224450Y217146D03*
X224450Y229846D03*
X224450Y242546D03*
X224450Y255246D03*
X224450Y267946D03*
X224450Y280646D03*
D11*
X71120Y109196D02*
X55880Y109196D01*
X55880Y134596D02*
X71120Y134596D01*
X71120Y159996D02*
X55880Y159996D01*
X55880Y185396D02*
X71120Y185396D01*
X71120Y210796D02*
X55880Y210796D01*
X55880Y236196D02*
X71120Y236196D01*
X71120Y261596D02*
X55880Y261596D01*
X55880Y286996D02*
X71120Y286996D01*
X71120Y312396D02*
X55880Y312396D01*
X55880Y337796D02*
X71120Y337796D01*
X282280Y337796D02*
X297520Y337796D01*
X297520Y312396D02*
X282280Y312396D01*
X282280Y286996D02*
X297520Y286996D01*
X297520Y261596D02*
X282280Y261596D01*
X282280Y236196D02*
X297520Y236196D01*
X297520Y210796D02*
X282280Y210796D01*
X282280Y185396D02*
X297520Y185396D01*
X297520Y159996D02*
X282280Y159996D01*
X282280Y134596D02*
X297520Y134596D01*
X297520Y109196D02*
X282280Y109196D01*
D12*
X286600Y109196D02*
X289900Y109196D01*
X286600Y109196D02*
X229450Y166346D01*
X224450Y166346D01*
X282280Y134596D02*
X289900Y134596D01*
X282280Y134596D02*
X237830Y179046D01*
X224450Y179046D01*
X282280Y159996D02*
X289900Y159996D01*
X282280Y159996D02*
X250530Y191746D01*
X224450Y191746D01*
X282280Y185396D02*
X289900Y185396D01*
X282280Y185396D02*
X263230Y204446D01*
X224450Y204446D01*
X282280Y210796D02*
X289900Y210796D01*
X282280Y210796D02*
X275930Y217146D01*
X224450Y217146D01*
X282280Y236196D02*
X289900Y236196D01*
X282280Y236196D02*
X275930Y229846D01*
X224450Y229846D01*
X282280Y261596D02*
X289900Y261596D01*
X282280Y261596D02*
X263230Y242546D01*
X224450Y242546D01*
X282280Y286996D02*
X289900Y286996D01*
X282280Y286996D02*
X250530Y255246D01*
X224450Y255246D01*
X282280Y312396D02*
X289900Y312396D01*
X282280Y312396D02*
X237830Y267946D01*
X224450Y267946D01*
X286600Y337796D02*
X289900Y337796D01*
X286600Y337796D02*
X229450Y280646D01*
X224450Y280646D01*
X128950Y166346D02*
X123950Y166346D01*
X66800Y109196D01*
X63500Y109196D01*
X115570Y179046D02*
X128950Y179046D01*
X115570Y179046D02*
X71120Y134596D01*
X63500Y134596D01*
X102870Y191746D02*
X128950Y191746D01*
X102870Y191746D02*
X71120Y159996D01*
X63500Y159996D01*
X90170Y204446D02*
X128950Y204446D01*
X90170Y204446D02*
X71120Y185396D01*
X63500Y185396D01*
X77470Y217146D02*
X128950Y217146D01*
X77470Y217146D02*
X71120Y210796D01*
X63500Y210796D01*
X77470Y229846D02*
X128950Y229846D01*
X77470Y229846D02*
X71120Y236196D01*
X63500Y236196D01*
X90170Y242546D02*
X128950Y242546D01*
X90170Y242546D02*
X71120Y261596D01*
X63500Y261596D01*
X102870Y255246D02*
X128950Y255246D01*
X102870Y255246D02*
X71120Y286996D01*
X63500Y286996D01*
X115570Y267946D02*
X128950Y267946D01*
X115570Y267946D02*
X71120Y312396D01*
X63500Y312396D01*
X123950Y280646D02*
X128950Y280646D01*
X123950Y280646D02*
X66800Y337796D01*
X63500Y337796D01*
M02*
