G04 EAGLE Gerber RS-274X export*
G75*
%MOMM*%
%FSLAX34Y34*%
%LPD*%
%INSilkscreen Top*%
%IPPOS*%
%AMOC8*
5,1,8,0,0,1.08239X$1,22.5*%
G01*
G04 Define Apertures*
%ADD10C,0.200000*%
%ADD11C,0.152400*%
G36*
X164640Y324771D02*
X164182Y324783D01*
X163739Y324819D01*
X163312Y324880D01*
X162901Y324965D01*
X162505Y325074D01*
X162125Y325207D01*
X161761Y325364D01*
X161413Y325546D01*
X161083Y325750D01*
X160772Y325975D01*
X160483Y326221D01*
X160213Y326488D01*
X159964Y326775D01*
X159735Y327083D01*
X159526Y327412D01*
X159337Y327762D01*
X159170Y328130D01*
X159025Y328515D01*
X158902Y328917D01*
X158802Y329335D01*
X158724Y329770D01*
X158668Y330221D01*
X158635Y330689D01*
X158623Y331173D01*
X158630Y331537D01*
X158648Y331891D01*
X158679Y332235D01*
X158723Y332569D01*
X158779Y332893D01*
X158848Y333207D01*
X158928Y333511D01*
X159022Y333805D01*
X159128Y334089D01*
X159246Y334363D01*
X159520Y334881D01*
X159844Y335360D01*
X160217Y335798D01*
X160635Y336190D01*
X161091Y336530D01*
X161333Y336680D01*
X161585Y336817D01*
X161847Y336941D01*
X162118Y337052D01*
X162399Y337151D01*
X162689Y337235D01*
X162989Y337307D01*
X163298Y337366D01*
X163617Y337412D01*
X163946Y337445D01*
X164284Y337464D01*
X164632Y337471D01*
X165114Y337459D01*
X165577Y337423D01*
X166019Y337362D01*
X166440Y337278D01*
X166842Y337170D01*
X167223Y337037D01*
X167584Y336881D01*
X167925Y336700D01*
X168245Y336496D01*
X168542Y336268D01*
X168818Y336017D01*
X169072Y335743D01*
X169304Y335446D01*
X169515Y335125D01*
X169703Y334781D01*
X169869Y334414D01*
X168284Y333888D01*
X168169Y334150D01*
X168037Y334395D01*
X167889Y334625D01*
X167725Y334839D01*
X167544Y335037D01*
X167347Y335219D01*
X167134Y335385D01*
X166905Y335535D01*
X166661Y335669D01*
X166407Y335784D01*
X166142Y335882D01*
X165866Y335962D01*
X165578Y336024D01*
X165280Y336069D01*
X164970Y336095D01*
X164649Y336104D01*
X164151Y336084D01*
X163681Y336022D01*
X163240Y335919D01*
X162827Y335775D01*
X162443Y335589D01*
X162087Y335363D01*
X161760Y335095D01*
X161461Y334786D01*
X161194Y334441D01*
X160963Y334066D01*
X160767Y333660D01*
X160607Y333224D01*
X160483Y332757D01*
X160394Y332260D01*
X160340Y331732D01*
X160323Y331173D01*
X160341Y330620D01*
X160397Y330095D01*
X160489Y329597D01*
X160619Y329127D01*
X160786Y328685D01*
X160990Y328271D01*
X161231Y327884D01*
X161509Y327525D01*
X161819Y327202D01*
X162155Y326922D01*
X162517Y326685D01*
X162905Y326491D01*
X163320Y326340D01*
X163760Y326232D01*
X164227Y326167D01*
X164719Y326146D01*
X165038Y326156D01*
X165347Y326186D01*
X165646Y326236D01*
X165935Y326306D01*
X166214Y326397D01*
X166483Y326507D01*
X166741Y326637D01*
X166990Y326787D01*
X167229Y326958D01*
X167457Y327148D01*
X167675Y327359D01*
X167884Y327589D01*
X168082Y327840D01*
X168270Y328111D01*
X168449Y328401D01*
X168617Y328712D01*
X169983Y328029D01*
X169783Y327642D01*
X169564Y327280D01*
X169325Y326941D01*
X169067Y326625D01*
X168789Y326334D01*
X168493Y326067D01*
X168177Y325823D01*
X167842Y325603D01*
X167490Y325408D01*
X167124Y325239D01*
X166745Y325096D01*
X166352Y324979D01*
X165945Y324888D01*
X165524Y324823D01*
X165089Y324784D01*
X164640Y324771D01*
G37*
G36*
X179750Y324946D02*
X172016Y324946D01*
X172016Y326286D01*
X175161Y326286D01*
X175161Y335780D01*
X172375Y333792D01*
X172375Y335281D01*
X175292Y337287D01*
X176746Y337287D01*
X176746Y326286D01*
X179750Y326286D01*
X179750Y324946D01*
G37*
G36*
X156072Y324946D02*
X154399Y324946D01*
X154399Y337287D01*
X156072Y337287D01*
X156072Y324946D01*
G37*
G36*
X41893Y108864D02*
X41568Y110353D01*
X41821Y110415D01*
X42057Y110492D01*
X42278Y110584D01*
X42482Y110691D01*
X42669Y110813D01*
X42841Y110950D01*
X42997Y111102D01*
X43136Y111268D01*
X43261Y111451D01*
X43371Y111651D01*
X43468Y111868D01*
X43550Y112102D01*
X43619Y112353D01*
X43673Y112621D01*
X43709Y112873D01*
X43714Y112906D01*
X43741Y113208D01*
X39396Y113208D01*
X39209Y112493D01*
X39031Y111898D01*
X38950Y111669D01*
X38863Y111423D01*
X38704Y111067D01*
X38545Y110786D01*
X38375Y110533D01*
X38193Y110308D01*
X37999Y110112D01*
X37797Y109943D01*
X37587Y109799D01*
X37370Y109680D01*
X37145Y109587D01*
X36906Y109516D01*
X36644Y109465D01*
X36359Y109435D01*
X36051Y109425D01*
X35720Y109440D01*
X35409Y109486D01*
X35116Y109563D01*
X34841Y109671D01*
X34585Y109810D01*
X34347Y109979D01*
X34127Y110179D01*
X33927Y110410D01*
X33746Y110669D01*
X33586Y110954D01*
X33449Y111265D01*
X33332Y111602D01*
X33237Y111965D01*
X33164Y112354D01*
X33112Y112768D01*
X33081Y113208D01*
X31934Y113208D01*
X31934Y114294D01*
X33081Y114294D01*
X33110Y114692D01*
X33157Y115067D01*
X33222Y115418D01*
X33306Y115746D01*
X33407Y116051D01*
X33527Y116332D01*
X33665Y116591D01*
X33822Y116826D01*
X33998Y117041D01*
X34198Y117240D01*
X34422Y117422D01*
X34668Y117588D01*
X34937Y117737D01*
X35230Y117870D01*
X35545Y117987D01*
X35884Y118087D01*
X36173Y116563D01*
X35784Y116453D01*
X35441Y116298D01*
X35143Y116098D01*
X34890Y115854D01*
X34781Y115712D01*
X34683Y115556D01*
X34596Y115384D01*
X34521Y115197D01*
X34457Y114994D01*
X34405Y114776D01*
X34364Y114543D01*
X34334Y114294D01*
X38231Y114294D01*
X38412Y115022D01*
X38584Y115636D01*
X38749Y116136D01*
X38906Y116524D01*
X39064Y116837D01*
X39232Y117116D01*
X39410Y117360D01*
X39598Y117570D01*
X39799Y117751D01*
X40018Y117910D01*
X40255Y118045D01*
X40509Y118157D01*
X40783Y118245D01*
X41080Y118308D01*
X41400Y118346D01*
X41744Y118358D01*
X42096Y118342D01*
X42431Y118292D01*
X42747Y118209D01*
X43046Y118094D01*
X43328Y117944D01*
X43591Y117762D01*
X43837Y117547D01*
X44065Y117299D01*
X44271Y117020D01*
X44454Y116713D01*
X44612Y116379D01*
X44746Y116018D01*
X44855Y115628D01*
X44940Y115211D01*
X45001Y114767D01*
X45037Y114294D01*
X46456Y114294D01*
X46456Y113208D01*
X45037Y113208D01*
X45006Y112754D01*
X44953Y112324D01*
X44878Y111919D01*
X44781Y111538D01*
X44662Y111181D01*
X44521Y110849D01*
X44357Y110540D01*
X44172Y110257D01*
X43964Y109997D01*
X43735Y109762D01*
X43483Y109552D01*
X43209Y109366D01*
X42913Y109204D01*
X42595Y109066D01*
X42255Y108953D01*
X41893Y108864D01*
G37*
%LPC*%
G36*
X43749Y114294D02*
X43723Y114594D01*
X43710Y114684D01*
X43683Y114876D01*
X43630Y115140D01*
X43563Y115386D01*
X43483Y115614D01*
X43390Y115824D01*
X43283Y116016D01*
X43163Y116191D01*
X43030Y116346D01*
X42884Y116480D01*
X42727Y116594D01*
X42558Y116687D01*
X42377Y116759D01*
X42184Y116811D01*
X41978Y116842D01*
X41761Y116852D01*
X41489Y116838D01*
X41242Y116795D01*
X41021Y116724D01*
X40824Y116624D01*
X40648Y116498D01*
X40488Y116346D01*
X40344Y116169D01*
X40215Y115967D01*
X40090Y115702D01*
X39954Y115335D01*
X39807Y114865D01*
X39650Y114294D01*
X43749Y114294D01*
G37*
G36*
X36033Y110931D02*
X36282Y110945D01*
X36510Y110986D01*
X36720Y111054D01*
X36909Y111150D01*
X36914Y111154D01*
X37081Y111273D01*
X37240Y111423D01*
X37384Y111599D01*
X37513Y111803D01*
X37636Y112053D01*
X37759Y112371D01*
X37881Y112756D01*
X38004Y113208D01*
X34316Y113208D01*
X34337Y112933D01*
X34370Y112675D01*
X34414Y112435D01*
X34470Y112212D01*
X34537Y112008D01*
X34615Y111821D01*
X34705Y111652D01*
X34807Y111501D01*
X34920Y111367D01*
X35044Y111251D01*
X35180Y111154D01*
X35328Y111074D01*
X35487Y111011D01*
X35658Y110967D01*
X35840Y110940D01*
X36033Y110931D01*
G37*
%LPD*%
G36*
X40728Y97118D02*
X32871Y97118D01*
X32871Y98791D01*
X40588Y98791D01*
X40997Y98804D01*
X41382Y98844D01*
X41741Y98911D01*
X42074Y99005D01*
X42382Y99126D01*
X42665Y99274D01*
X42922Y99448D01*
X43154Y99649D01*
X43359Y99876D01*
X43537Y100126D01*
X43687Y100400D01*
X43811Y100698D01*
X43906Y101020D01*
X43975Y101365D01*
X44016Y101735D01*
X44030Y102128D01*
X44015Y102532D01*
X43973Y102914D01*
X43902Y103272D01*
X43803Y103607D01*
X43676Y103919D01*
X43520Y104208D01*
X43336Y104473D01*
X43123Y104716D01*
X42883Y104932D01*
X42618Y105120D01*
X42326Y105279D01*
X42007Y105409D01*
X41663Y105510D01*
X41293Y105582D01*
X40896Y105625D01*
X40474Y105640D01*
X32871Y105640D01*
X32871Y107304D01*
X40570Y107304D01*
X40938Y107294D01*
X41293Y107264D01*
X41635Y107215D01*
X41965Y107145D01*
X42281Y107056D01*
X42585Y106947D01*
X42876Y106818D01*
X43154Y106669D01*
X43417Y106502D01*
X43665Y106319D01*
X43896Y106119D01*
X44112Y105903D01*
X44311Y105670D01*
X44495Y105421D01*
X44662Y105155D01*
X44814Y104874D01*
X44948Y104577D01*
X45065Y104267D01*
X45163Y103945D01*
X45244Y103609D01*
X45306Y103260D01*
X45351Y102899D01*
X45378Y102524D01*
X45387Y102136D01*
X45379Y101764D01*
X45353Y101403D01*
X45310Y101054D01*
X45249Y100718D01*
X45172Y100393D01*
X45077Y100080D01*
X44965Y99780D01*
X44835Y99491D01*
X44690Y99217D01*
X44528Y98958D01*
X44351Y98715D01*
X44159Y98489D01*
X43951Y98278D01*
X43727Y98082D01*
X43488Y97903D01*
X43233Y97740D01*
X42964Y97594D01*
X42682Y97468D01*
X42388Y97361D01*
X42081Y97273D01*
X41761Y97205D01*
X41429Y97157D01*
X41085Y97128D01*
X40728Y97118D01*
G37*
G36*
X45212Y120007D02*
X43872Y120007D01*
X43872Y123151D01*
X34378Y123151D01*
X36366Y120366D01*
X34877Y120366D01*
X32871Y123282D01*
X32871Y124736D01*
X43872Y124736D01*
X43872Y127740D01*
X45212Y127740D01*
X45212Y120007D01*
G37*
G36*
X357569Y171483D02*
X357244Y172972D01*
X357497Y173035D01*
X357733Y173112D01*
X357954Y173204D01*
X358158Y173311D01*
X358345Y173433D01*
X358517Y173569D01*
X358673Y173721D01*
X358812Y173888D01*
X358937Y174070D01*
X359047Y174270D01*
X359144Y174487D01*
X359226Y174721D01*
X359295Y174972D01*
X359349Y175240D01*
X359385Y175492D01*
X359390Y175525D01*
X359417Y175828D01*
X355072Y175828D01*
X354885Y175112D01*
X354707Y174517D01*
X354626Y174288D01*
X354539Y174042D01*
X354380Y173686D01*
X354221Y173405D01*
X354051Y173152D01*
X353869Y172927D01*
X353675Y172731D01*
X353473Y172562D01*
X353263Y172418D01*
X353046Y172300D01*
X352821Y172206D01*
X352582Y172135D01*
X352320Y172084D01*
X352035Y172054D01*
X351727Y172044D01*
X351396Y172059D01*
X351085Y172106D01*
X350792Y172183D01*
X350517Y172290D01*
X350261Y172429D01*
X350023Y172598D01*
X349803Y172798D01*
X349603Y173029D01*
X349422Y173289D01*
X349262Y173574D01*
X349125Y173885D01*
X349008Y174222D01*
X348913Y174584D01*
X348840Y174973D01*
X348788Y175387D01*
X348757Y175828D01*
X347610Y175828D01*
X347610Y176914D01*
X348757Y176914D01*
X348786Y177312D01*
X348833Y177686D01*
X348898Y178037D01*
X348982Y178365D01*
X349083Y178670D01*
X349203Y178952D01*
X349341Y179210D01*
X349498Y179445D01*
X349674Y179660D01*
X349874Y179859D01*
X350098Y180041D01*
X350344Y180207D01*
X350613Y180356D01*
X350906Y180489D01*
X351221Y180606D01*
X351560Y180706D01*
X351849Y179182D01*
X351460Y179072D01*
X351117Y178917D01*
X350819Y178717D01*
X350566Y178473D01*
X350457Y178331D01*
X350359Y178175D01*
X350272Y178003D01*
X350197Y177816D01*
X350133Y177613D01*
X350081Y177395D01*
X350040Y177162D01*
X350010Y176914D01*
X353907Y176914D01*
X354088Y177641D01*
X354260Y178255D01*
X354425Y178755D01*
X354582Y179143D01*
X354740Y179456D01*
X354908Y179735D01*
X355086Y179979D01*
X355274Y180189D01*
X355475Y180371D01*
X355694Y180529D01*
X355931Y180664D01*
X356185Y180776D01*
X356459Y180864D01*
X356756Y180927D01*
X357076Y180965D01*
X357420Y180978D01*
X357772Y180961D01*
X358107Y180911D01*
X358423Y180829D01*
X358722Y180713D01*
X359004Y180564D01*
X359267Y180382D01*
X359513Y180166D01*
X359741Y179918D01*
X359947Y179639D01*
X360130Y179333D01*
X360288Y178999D01*
X360422Y178637D01*
X360531Y178248D01*
X360616Y177831D01*
X360677Y177386D01*
X360713Y176914D01*
X362132Y176914D01*
X362132Y175828D01*
X360713Y175828D01*
X360682Y175373D01*
X360629Y174944D01*
X360554Y174538D01*
X360457Y174157D01*
X360338Y173800D01*
X360197Y173468D01*
X360033Y173160D01*
X359848Y172876D01*
X359640Y172617D01*
X359411Y172382D01*
X359159Y172171D01*
X358885Y171985D01*
X358589Y171823D01*
X358271Y171685D01*
X357931Y171572D01*
X357569Y171483D01*
G37*
%LPC*%
G36*
X359425Y176914D02*
X359399Y177213D01*
X359386Y177303D01*
X359359Y177495D01*
X359306Y177759D01*
X359239Y178005D01*
X359159Y178233D01*
X359066Y178443D01*
X358959Y178636D01*
X358839Y178810D01*
X358706Y178965D01*
X358560Y179099D01*
X358403Y179213D01*
X358234Y179306D01*
X358053Y179378D01*
X357860Y179430D01*
X357654Y179461D01*
X357437Y179471D01*
X357165Y179457D01*
X356918Y179414D01*
X356697Y179343D01*
X356500Y179243D01*
X356324Y179117D01*
X356164Y178965D01*
X356020Y178789D01*
X355891Y178587D01*
X355766Y178321D01*
X355630Y177954D01*
X355483Y177485D01*
X355326Y176914D01*
X359425Y176914D01*
G37*
G36*
X351709Y173550D02*
X351958Y173564D01*
X352186Y173605D01*
X352396Y173674D01*
X352585Y173769D01*
X352590Y173773D01*
X352757Y173892D01*
X352916Y174042D01*
X353060Y174219D01*
X353189Y174422D01*
X353312Y174672D01*
X353435Y174990D01*
X353557Y175375D01*
X353680Y175828D01*
X349992Y175828D01*
X350013Y175552D01*
X350046Y175294D01*
X350090Y175054D01*
X350146Y174831D01*
X350213Y174627D01*
X350291Y174440D01*
X350381Y174271D01*
X350483Y174120D01*
X350596Y173986D01*
X350720Y173871D01*
X350856Y173773D01*
X351004Y173693D01*
X351163Y173630D01*
X351334Y173586D01*
X351516Y173559D01*
X351709Y173550D01*
G37*
%LPD*%
G36*
X356404Y159737D02*
X348547Y159737D01*
X348547Y161410D01*
X356264Y161410D01*
X356673Y161423D01*
X357058Y161464D01*
X357417Y161531D01*
X357750Y161625D01*
X358058Y161745D01*
X358341Y161893D01*
X358598Y162067D01*
X358830Y162268D01*
X359035Y162495D01*
X359213Y162745D01*
X359363Y163019D01*
X359487Y163317D01*
X359582Y163639D01*
X359651Y163984D01*
X359692Y164354D01*
X359706Y164747D01*
X359691Y165151D01*
X359649Y165533D01*
X359578Y165891D01*
X359479Y166226D01*
X359352Y166538D01*
X359196Y166827D01*
X359012Y167093D01*
X358799Y167335D01*
X358559Y167552D01*
X358294Y167739D01*
X358002Y167898D01*
X357683Y168028D01*
X357339Y168129D01*
X356969Y168201D01*
X356572Y168245D01*
X356150Y168259D01*
X348547Y168259D01*
X348547Y169923D01*
X356246Y169923D01*
X356614Y169913D01*
X356969Y169884D01*
X357311Y169834D01*
X357641Y169765D01*
X357957Y169675D01*
X358261Y169566D01*
X358552Y169437D01*
X358830Y169288D01*
X359093Y169121D01*
X359341Y168938D01*
X359572Y168738D01*
X359788Y168522D01*
X359987Y168289D01*
X360171Y168040D01*
X360338Y167775D01*
X360490Y167493D01*
X360624Y167196D01*
X360741Y166887D01*
X360839Y166564D01*
X360920Y166228D01*
X360982Y165880D01*
X361027Y165518D01*
X361054Y165143D01*
X361063Y164756D01*
X361055Y164383D01*
X361029Y164022D01*
X360986Y163673D01*
X360925Y163337D01*
X360848Y163012D01*
X360753Y162700D01*
X360641Y162399D01*
X360511Y162111D01*
X360366Y161836D01*
X360204Y161577D01*
X360027Y161335D01*
X359835Y161108D01*
X359627Y160897D01*
X359403Y160702D01*
X359164Y160522D01*
X358909Y160359D01*
X358640Y160213D01*
X358358Y160087D01*
X358064Y159980D01*
X357757Y159893D01*
X357437Y159825D01*
X357105Y159776D01*
X356761Y159747D01*
X356404Y159737D01*
G37*
G36*
X360888Y182162D02*
X359776Y182162D01*
X359278Y182397D01*
X358811Y182658D01*
X358374Y182942D01*
X357967Y183252D01*
X357584Y183578D01*
X357220Y183912D01*
X356875Y184255D01*
X356548Y184605D01*
X355936Y185311D01*
X355370Y186011D01*
X354827Y186673D01*
X354284Y187268D01*
X354009Y187535D01*
X353728Y187775D01*
X353440Y187988D01*
X353145Y188174D01*
X352838Y188326D01*
X352510Y188434D01*
X352163Y188499D01*
X351797Y188520D01*
X351550Y188511D01*
X351317Y188483D01*
X351099Y188437D01*
X350895Y188371D01*
X350705Y188288D01*
X350529Y188185D01*
X350367Y188064D01*
X350220Y187925D01*
X350089Y187769D01*
X349975Y187598D01*
X349879Y187413D01*
X349800Y187213D01*
X349738Y186999D01*
X349695Y186770D01*
X349668Y186527D01*
X349660Y186269D01*
X349668Y186023D01*
X349694Y185788D01*
X349737Y185564D01*
X349796Y185351D01*
X349873Y185149D01*
X349967Y184958D01*
X350079Y184778D01*
X350207Y184610D01*
X350351Y184455D01*
X350508Y184317D01*
X350680Y184196D01*
X350865Y184092D01*
X351064Y184004D01*
X351277Y183934D01*
X351504Y183880D01*
X351744Y183843D01*
X351595Y182232D01*
X351235Y182290D01*
X350893Y182376D01*
X350570Y182491D01*
X350266Y182633D01*
X349981Y182805D01*
X349715Y183004D01*
X349468Y183232D01*
X349239Y183489D01*
X349034Y183769D01*
X348856Y184068D01*
X348705Y184387D01*
X348582Y184725D01*
X348486Y185082D01*
X348418Y185458D01*
X348377Y185854D01*
X348363Y186269D01*
X348377Y186722D01*
X348418Y187148D01*
X348487Y187547D01*
X348583Y187919D01*
X348707Y188264D01*
X348858Y188582D01*
X349037Y188874D01*
X349244Y189138D01*
X349475Y189373D01*
X349730Y189577D01*
X350008Y189749D01*
X350309Y189890D01*
X350633Y190000D01*
X350980Y190078D01*
X351351Y190125D01*
X351744Y190141D01*
X352103Y190120D01*
X352460Y190059D01*
X352816Y189956D01*
X353172Y189812D01*
X353526Y189628D01*
X353881Y189404D01*
X354236Y189140D01*
X354591Y188836D01*
X354994Y188438D01*
X355495Y187892D01*
X356093Y187198D01*
X356789Y186357D01*
X357191Y185879D01*
X357572Y185453D01*
X357933Y185078D01*
X358274Y184754D01*
X358601Y184477D01*
X358923Y184242D01*
X359238Y184048D01*
X359548Y183896D01*
X359548Y190333D01*
X360888Y190333D01*
X360888Y182162D01*
G37*
D10*
X140700Y287496D02*
X212700Y287496D01*
X212700Y159496D01*
X140700Y159496D01*
X140700Y287496D01*
X137200Y287396D02*
X120700Y287396D01*
D11*
X57150Y299696D02*
X50800Y306046D01*
X50800Y318746D01*
X57150Y325096D01*
X69850Y325096D01*
X76200Y318746D01*
X76200Y306046D01*
X69850Y299696D01*
X50800Y267946D02*
X50800Y255246D01*
X50800Y267946D02*
X57150Y274296D01*
X69850Y274296D01*
X76200Y267946D01*
X57150Y274296D02*
X50800Y280646D01*
X50800Y293346D01*
X57150Y299696D01*
X69850Y299696D01*
X76200Y293346D01*
X76200Y280646D01*
X69850Y274296D01*
X50800Y229846D02*
X57150Y223496D01*
X50800Y229846D02*
X50800Y242546D01*
X57150Y248896D01*
X69850Y248896D01*
X76200Y242546D01*
X76200Y229846D01*
X69850Y223496D01*
X57150Y248896D02*
X50800Y255246D01*
X69850Y248896D02*
X76200Y255246D01*
X76200Y267946D01*
X50800Y191746D02*
X50800Y179046D01*
X50800Y191746D02*
X57150Y198096D01*
X69850Y198096D01*
X76200Y191746D01*
X57150Y198096D02*
X50800Y204446D01*
X50800Y217146D01*
X57150Y223496D01*
X69850Y223496D01*
X76200Y217146D01*
X76200Y204446D01*
X69850Y198096D01*
X50800Y153646D02*
X57150Y147296D01*
X50800Y153646D02*
X50800Y166346D01*
X57150Y172696D01*
X69850Y172696D01*
X76200Y166346D01*
X76200Y153646D01*
X69850Y147296D01*
X57150Y172696D02*
X50800Y179046D01*
X69850Y172696D02*
X76200Y179046D01*
X76200Y191746D01*
X50800Y115546D02*
X50800Y102846D01*
X50800Y115546D02*
X57150Y121896D01*
X69850Y121896D01*
X76200Y115546D01*
X57150Y121896D02*
X50800Y128246D01*
X50800Y140946D01*
X57150Y147296D01*
X69850Y147296D01*
X76200Y140946D01*
X76200Y128246D01*
X69850Y121896D01*
X69850Y96496D02*
X57150Y96496D01*
X50800Y102846D01*
X69850Y96496D02*
X76200Y102846D01*
X76200Y115546D01*
X50800Y331446D02*
X50800Y344146D01*
X57150Y350496D01*
X69850Y350496D01*
X76200Y344146D01*
X57150Y325096D02*
X50800Y331446D01*
X69850Y325096D02*
X76200Y331446D01*
X76200Y344146D01*
X296250Y147296D02*
X302600Y140946D01*
X302600Y128246D01*
X296250Y121896D01*
X283550Y121896D01*
X277200Y128246D01*
X277200Y140946D01*
X283550Y147296D01*
X302600Y179046D02*
X302600Y191746D01*
X302600Y179046D02*
X296250Y172696D01*
X283550Y172696D01*
X277200Y179046D01*
X296250Y172696D02*
X302600Y166346D01*
X302600Y153646D01*
X296250Y147296D01*
X283550Y147296D01*
X277200Y153646D01*
X277200Y166346D01*
X283550Y172696D01*
X302600Y217146D02*
X296250Y223496D01*
X302600Y217146D02*
X302600Y204446D01*
X296250Y198096D01*
X283550Y198096D01*
X277200Y204446D01*
X277200Y217146D01*
X283550Y223496D01*
X296250Y198096D02*
X302600Y191746D01*
X283550Y198096D02*
X277200Y191746D01*
X277200Y179046D01*
X302600Y255246D02*
X302600Y267946D01*
X302600Y255246D02*
X296250Y248896D01*
X283550Y248896D01*
X277200Y255246D01*
X296250Y248896D02*
X302600Y242546D01*
X302600Y229846D01*
X296250Y223496D01*
X283550Y223496D01*
X277200Y229846D01*
X277200Y242546D01*
X283550Y248896D01*
X302600Y293346D02*
X296250Y299696D01*
X302600Y293346D02*
X302600Y280646D01*
X296250Y274296D01*
X283550Y274296D01*
X277200Y280646D01*
X277200Y293346D01*
X283550Y299696D01*
X296250Y274296D02*
X302600Y267946D01*
X283550Y274296D02*
X277200Y267946D01*
X277200Y255246D01*
X302600Y331446D02*
X302600Y344146D01*
X302600Y331446D02*
X296250Y325096D01*
X283550Y325096D01*
X277200Y331446D01*
X296250Y325096D02*
X302600Y318746D01*
X302600Y306046D01*
X296250Y299696D01*
X283550Y299696D01*
X277200Y306046D01*
X277200Y318746D01*
X283550Y325096D01*
X283550Y350496D02*
X296250Y350496D01*
X302600Y344146D01*
X283550Y350496D02*
X277200Y344146D01*
X277200Y331446D01*
X302600Y115546D02*
X302600Y102846D01*
X296250Y96496D01*
X283550Y96496D01*
X277200Y102846D01*
X296250Y121896D02*
X302600Y115546D01*
X283550Y121896D02*
X277200Y115546D01*
X277200Y102846D01*
M02*
