M48
;GenerationSoftware,Autodesk,EAGLE,9.7.0*%
;CreationDate,2024-09-22T18:35:32Z*%
FMAT,2
ICI,OFF
METRIC,TZ,000.000
T1C1.016
%
G90
M71
T1
X6350Y10920
X6350Y13460
X6350Y16000
X6350Y18540
X6350Y21080
X6350Y23620
X6350Y26160
X6350Y28700
X6350Y31240
X6350Y33780
X28990Y33780
X28990Y31240
X28990Y28700
X28990Y26160
X28990Y23620
X28990Y21080
X28990Y18540
X28990Y16000
X28990Y13460
X28990Y10920
M30