G04 EAGLE Gerber RS-274X export*
G75*
%MOMM*%
%FSLAX34Y34*%
%LPD*%
%INTop Copper*%
%IPPOS*%
%AMOC8*
5,1,8,0,0,1.08239X$1,22.5*%
G01*
G04 Define Apertures*
%ADD10C,1.524000*%
%ADD11R,2.200000X0.500000*%
%ADD12C,0.500000*%
D10*
X246620Y111900D02*
X231380Y111900D01*
X231380Y137300D02*
X246620Y137300D01*
X246620Y162700D02*
X231380Y162700D01*
X231380Y188100D02*
X246620Y188100D01*
X67620Y188100D02*
X52380Y188100D01*
X52380Y162700D02*
X67620Y162700D01*
X67620Y137300D02*
X52380Y137300D01*
X52380Y111900D02*
X67620Y111900D01*
D11*
X118460Y169050D03*
X118460Y156450D03*
X118460Y143750D03*
X118460Y131050D03*
X181540Y169050D03*
X181540Y156350D03*
X181540Y143650D03*
X181540Y130950D03*
D12*
X118460Y169050D02*
X105950Y169050D01*
X92500Y182500D01*
X90000Y185000D01*
X86900Y188100D02*
X60000Y188100D01*
X86900Y188100D02*
X90000Y185000D01*
X66250Y156450D02*
X118460Y156450D01*
X66250Y156450D02*
X60000Y162700D01*
X66450Y143750D02*
X118460Y143750D01*
X66450Y143750D02*
X60000Y137300D01*
X104150Y131050D02*
X118460Y131050D01*
X104150Y131050D02*
X85000Y111900D01*
X60000Y111900D01*
X191540Y169050D02*
X210590Y188100D01*
X191540Y169050D02*
X181540Y169050D01*
X210590Y188100D02*
X239000Y188100D01*
X232650Y156350D02*
X181540Y156350D01*
X232650Y156350D02*
X239000Y162700D01*
X232650Y143650D02*
X181540Y143650D01*
X232650Y143650D02*
X239000Y137300D01*
X210590Y111900D02*
X191540Y130950D01*
X181540Y130950D01*
X210590Y111900D02*
X239000Y111900D01*
M02*
